<?xml version="1.0" encoding="utf-8"?>
<!-- Generator: Adobe Illustrator 22.1.0, SVG Export Plug-In . SVG Version: 6.00 Build 0)  -->
<svg version="1.1" id="Layer_1" xmlns="http://www.w3.org/2000/svg" xmlns:xlink="http://www.w3.org/1999/xlink" x="0px" y="0px"
	 viewBox="0 0 600.2 198.3" style="enable-background:new 0 0 600.2 198.3;" xml:space="preserve">
<style type="text/css">
	.st0{fill:#055450;}
	.st1{fill:#F9C3BF;}
</style>
<g>
	<g>
		<rect class="st0" width="600.2" height="198.3"/>
	</g>
	<g>
		<g>
			<path class="st1" d="M111.7,66.8h5.2v64.8h-5.2V95.7h-8.4v35.9h-5.2V66.8h5.2v23.7h8.4V66.8z"/>
			<path class="st1" d="M163,67v5.2h-13v18.4h10.5v5.2h-10.5v30.6h13v5.2h-18.2V66.8L163,67z"/>
			<path class="st1" d="M207,66.8h5.6L204.2,97v34.6H199V97l-8.3-30.2h5.6l5.4,20.4L207,66.8z"/>
			<path class="st1" d="M250.3,66.7c4.8,0,8.7,3.9,8.7,8.7v6.2h-5.2v-6.2c0-1.9-1.6-3.5-3.5-3.5h-1.4c-1.9,0-3.5,1.6-3.5,3.5v47.4
				c0,1.9,1.6,3.5,3.5,3.5h1.4c1.9,0,3.5-1.6,3.5-3.5v-6.2h5.2v6.2c0,4.8-3.9,8.7-8.7,8.7h-1.4c-4.8,0-8.7-3.9-8.7-8.7V75.5
				c0-4.8,3.9-8.7,8.7-8.7L250.3,66.7L250.3,66.7z"/>
			<path class="st1" d="M300,66.8h5.2v56.1c0,4.8-3.9,8.7-8.7,8.7h-1.4c-4.8,0-8.7-3.9-8.7-8.7V66.8h5.2v56.1c0,1.9,1.6,3.5,3.5,3.5
				h1.4c1.9,0,3.5-1.6,3.5-3.5V66.8z"/>
			<path class="st1" d="M343.2,66.9c4.8,0,8.7,3.9,8.7,8.7V94c0,4.6-3.6,8.4-8.1,8.7l8.1,28.9H346l-7.8-28.2v28.2h-5.2V66.8
				L343.2,66.9L343.2,66.9z M346.7,75.7c0-1.9-1.6-3.5-3.5-3.5h-4.9v25.5h4.9c1.9,0,3.5-1.6,3.5-3.5V75.7z"/>
			<path class="st1" d="M398,126.4v5.2h-18.2V66.8h5.2v59.6H398z"/>
		</g>
		<path class="st1" d="M445.9,107.4c-2.3,0.3-4,2.1-5.1,4.3c-2.1,3.8-3.6,6-6.4,9.5c-4.4,5.1-9.8,10-17.1,9.8c-1,0-1.9-0.6-2.4-1.1
			c-0.7-0.7-0.9-1.7-0.9-2.6c0-3,1.1-5.3,3-7.5l0.3-0.4c4-5,9.4-9.3,15-12.2c2.6-1.4,3.8-1.6,3.8-4.6c0.1-9.5-13-7.3-16.2-16.8
			c-2-8.1,9.4-15.8,16.7-18.5c2-0.9,3.7,0.1,4.6,1.3c1,1.6,0.6,4.1-2.3,5.6c-2.4,1.3-10.3,5.3-10.3,8.8c0.1,3,1.9,4.1,4.3,5.4
			c3.1,1.6,6,3.1,8,5.7c1.9,2.3,2.6,4.1,2.7,7.7c0,0.6,0.4,0.9,1,0.9c20.2-2.4,36.9-7,52.3-14.7c5-2.6,7.8,1.1,2.4,4.3
			C483.5,101.2,463.4,105.2,445.9,107.4"/>
	</g>
</g>
</svg>
